<svg id="SvgjsSvg1006" width="577" height="307" xmlns="http://www.w3.org/2000/svg" version="1.1" xmlns:xlink="http://www.w3.org/1999/xlink" xmlns:svgjs="http://svgjs.com/svgjs"><defs id="SvgjsDefs1007"><marker id="SvgjsMarker1026" markerWidth="16" markerHeight="12" refX="16" refY="6" viewBox="0 0 16 12" orient="auto" markerUnits="userSpaceOnUse" stroke-dasharray="0,0"><path id="SvgjsPath1027" d="M0,2 L14,6 L0,11 L0,2" fill="#323232" stroke="#323232" stroke-width="2"></path></marker><marker id="SvgjsMarker1042" markerWidth="16" markerHeight="12" refX="16" refY="6" viewBox="0 0 16 12" orient="auto" markerUnits="userSpaceOnUse" stroke-dasharray="0,0"><path id="SvgjsPath1043" d="M0,2 L14,6 L0,11 L0,2" fill="#323232" stroke="#323232" stroke-width="2"></path></marker></defs><g id="SvgjsG1008" transform="translate(25,212)"><path id="SvgjsPath1009" d="M 0 35C 0 -11.666666666666666 70 -11.666666666666666 70 35C 70 81.66666666666667 0 81.66666666666667 0 35Z" stroke="rgba(50,50,50,1)" stroke-width="2" fill-opacity="1" fill="#ffffff"></path><g id="SvgjsG1010"><text id="SvgjsText1011" font-family="微软雅黑" text-anchor="middle" font-size="13px" width="50px" fill="#323232" font-weight="400" align="middle" anchor="middle" family="微软雅黑" size="13px" weight="400" font-style="" opacity="1" y="25.05" transform="rotate(0)"></text></g></g><g id="SvgjsG1012" transform="translate(250,212)"><path id="SvgjsPath1013" d="M 0 35C 0 -11.666666666666666 70 -11.666666666666666 70 35C 70 81.66666666666667 0 81.66666666666667 0 35Z" stroke="rgba(50,50,50,1)" stroke-width="2" fill-opacity="1" fill="#ffffff"></path><g id="SvgjsG1014"><text id="SvgjsText1015" font-family="微软雅黑" text-anchor="middle" font-size="13px" width="50px" fill="#323232" font-weight="400" align="middle" anchor="middle" family="微软雅黑" size="13px" weight="400" font-style="" opacity="1" y="25.05" transform="rotate(0)"></text></g></g><g id="SvgjsG1016" transform="translate(468,212)"><path id="SvgjsPath1017" d="M 0 35C 0 -11.666666666666666 70 -11.666666666666666 70 35C 70 81.66666666666667 0 81.66666666666667 0 35Z" stroke="rgba(50,50,50,1)" stroke-width="2" fill-opacity="1" fill="#ffffff"></path><g id="SvgjsG1018"><text id="SvgjsText1019" font-family="微软雅黑" text-anchor="middle" font-size="13px" width="50px" fill="#323232" font-weight="400" align="middle" anchor="middle" family="微软雅黑" size="13px" weight="400" font-style="" opacity="1" y="25.05" transform="rotate(0)"></text></g></g><g id="SvgjsG1020"><path id="SvgjsPath1021" d="M95 247L172.5 247L172.5 247L250 247" stroke="#323232" stroke-width="2" fill="none"></path></g><g id="SvgjsG1022"><path id="SvgjsPath1023" d="M320 247L394 247L394 247L468 247" stroke="#323232" stroke-width="2" fill="none"></path></g><g id="SvgjsG1024"><path id="SvgjsPath1025" d="M503 161L503 186.5L503 186.5L503 212" stroke="#323232" stroke-width="2" fill="none" marker-end="url(#SvgjsMarker1026)"></path></g><g id="SvgjsG1028" transform="translate(454,112)"><path id="SvgjsPath1029" d="M 0 0L 98 0L 98 47L 0 47Z" stroke="none" fill="none"></path><g id="SvgjsG1030"><text id="SvgjsText1031" font-family="微软雅黑" text-anchor="middle" font-size="16px" width="98px" fill="#323232" font-weight="400" align="middle" anchor="middle" family="微软雅黑" size="16px" weight="400" font-style="" opacity="1" y="11.1" transform="rotate(0)"><tspan id="SvgjsTspan1032" dy="20" x="49"><tspan id="SvgjsTspan1033" style="text-decoration:;">master</tspan></tspan></text></g></g><g id="SvgjsG1034" transform="translate(454,25)"><path id="SvgjsPath1035" d="M 0 0L 98 0L 98 47L 0 47Z" stroke="none" fill="none"></path><g id="SvgjsG1036"><text id="SvgjsText1037" font-family="微软雅黑" text-anchor="middle" font-size="16px" width="98px" fill="#323232" font-weight="400" align="middle" anchor="middle" family="微软雅黑" size="16px" weight="400" font-style="" opacity="1" y="11.1" transform="rotate(0)"><tspan id="SvgjsTspan1038" dy="20" x="49"><tspan id="SvgjsTspan1039" style="text-decoration:;">HEAD</tspan></tspan></text></g></g><g id="SvgjsG1040"><path id="SvgjsPath1041" d="M503 76L503 101.5L503 101.5L503 127" stroke="#323232" stroke-width="2" fill="none" marker-end="url(#SvgjsMarker1042)"></path></g></svg>