<svg id="SvgjsSvg1044" width="577" height="400" xmlns="http://www.w3.org/2000/svg" version="1.1" xmlns:xlink="http://www.w3.org/1999/xlink" xmlns:svgjs="http://svgjs.com/svgjs"><defs id="SvgjsDefs1045"><marker id="SvgjsMarker1064" markerWidth="16" markerHeight="12" refX="16" refY="6" viewBox="0 0 16 12" orient="auto" markerUnits="userSpaceOnUse" stroke-dasharray="0,0"><path id="SvgjsPath1065" d="M0,2 L14,6 L0,11 L0,2" fill="#323232" stroke="#323232" stroke-width="2"></path></marker><marker id="SvgjsMarker1080" markerWidth="16" markerHeight="12" refX="0" refY="6" viewBox="0 0 16 12" orient="auto" markerUnits="userSpaceOnUse" stroke-dasharray="0,0"><path id="SvgjsPath1081" d="M15,1.5 L2,6 L15,10.5" fill="#323232" stroke="#323232" stroke-width="2"></path></marker><marker id="SvgjsMarker1090" markerWidth="16" markerHeight="12" refX="0" refY="6" viewBox="0 0 16 12" orient="auto" markerUnits="userSpaceOnUse" stroke-dasharray="0,0"><path id="SvgjsPath1091" d="M15,1.5 L2,6 L15,10.5" fill="#323232" stroke="#323232" stroke-width="2"></path></marker></defs><g id="SvgjsG1046" transform="translate(25,125)"><path id="SvgjsPath1047" d="M 0 35C 0 -11.666666666666666 70 -11.666666666666666 70 35C 70 81.66666666666667 0 81.66666666666667 0 35Z" stroke="rgba(50,50,50,1)" stroke-width="2" fill-opacity="1" fill="#ffffff"></path><g id="SvgjsG1048"><text id="SvgjsText1049" font-family="微软雅黑" text-anchor="middle" font-size="13px" width="50px" fill="#323232" font-weight="400" align="middle" anchor="middle" family="微软雅黑" size="13px" weight="400" font-style="" opacity="1" y="25.05" transform="rotate(0)"></text></g></g><g id="SvgjsG1050" transform="translate(250,125)"><path id="SvgjsPath1051" d="M 0 35C 0 -11.666666666666666 70 -11.666666666666666 70 35C 70 81.66666666666667 0 81.66666666666667 0 35Z" stroke="rgba(50,50,50,1)" stroke-width="2" fill-opacity="1" fill="#ffffff"></path><g id="SvgjsG1052"><text id="SvgjsText1053" font-family="微软雅黑" text-anchor="middle" font-size="13px" width="50px" fill="#323232" font-weight="400" align="middle" anchor="middle" family="微软雅黑" size="13px" weight="400" font-style="" opacity="1" y="25.05" transform="rotate(0)"></text></g></g><g id="SvgjsG1054" transform="translate(468,125)"><path id="SvgjsPath1055" d="M 0 35C 0 -11.666666666666666 70 -11.666666666666666 70 35C 70 81.66666666666667 0 81.66666666666667 0 35Z" stroke="rgba(50,50,50,1)" stroke-width="2" fill-opacity="1" fill="#ffffff"></path><g id="SvgjsG1056"><text id="SvgjsText1057" font-family="微软雅黑" text-anchor="middle" font-size="13px" width="50px" fill="#323232" font-weight="400" align="middle" anchor="middle" family="微软雅黑" size="13px" weight="400" font-style="" opacity="1" y="25.05" transform="rotate(0)"></text></g></g><g id="SvgjsG1058"><path id="SvgjsPath1059" d="M95 160L172.5 160L172.5 160L250 160" stroke="#323232" stroke-width="2" fill="none"></path></g><g id="SvgjsG1060"><path id="SvgjsPath1061" d="M320 160L394 160L394 160L468 160" stroke="#323232" stroke-width="2" fill="none"></path></g><g id="SvgjsG1062"><path id="SvgjsPath1063" d="M503 74L503 99.5L503 99.5L503 125" stroke="#323232" stroke-width="2" fill="none" marker-end="url(#SvgjsMarker1064)"></path></g><g id="SvgjsG1066" transform="translate(454,25)"><path id="SvgjsPath1067" d="M 0 0L 98 0L 98 47L 0 47Z" stroke="none" fill="none"></path><g id="SvgjsG1068"><text id="SvgjsText1069" font-family="微软雅黑" text-anchor="middle" font-size="16px" width="98px" fill="#323232" font-weight="400" align="middle" anchor="middle" family="微软雅黑" size="16px" weight="400" font-style="" opacity="1" y="11.1" transform="rotate(0)"><tspan id="SvgjsTspan1070" dy="20" x="49"><tspan id="SvgjsTspan1071" style="text-decoration:;">master</tspan></tspan></text></g></g><g id="SvgjsG1072" transform="translate(454,328)"><path id="SvgjsPath1073" d="M 0 0L 98 0L 98 47L 0 47Z" stroke="none" fill="none"></path><g id="SvgjsG1074"><text id="SvgjsText1075" font-family="微软雅黑" text-anchor="middle" font-size="16px" width="98px" fill="#323232" font-weight="400" align="middle" anchor="middle" family="微软雅黑" size="16px" weight="400" font-style="" opacity="1" y="11.1" transform="rotate(0)"><tspan id="SvgjsTspan1076" dy="20" x="49"><tspan id="SvgjsTspan1077" style="text-decoration:;">HEAD</tspan></tspan></text></g></g><g id="SvgjsG1078"><path id="SvgjsPath1079" d="M503 284L503 309.5L503 309.5L503 335" stroke="#323232" stroke-width="2" fill="none" marker-start="url(#SvgjsMarker1080)"></path></g><g id="SvgjsG1082" transform="translate(454,238)"><path id="SvgjsPath1083" d="M 0 0L 98 0L 98 47L 0 47Z" stroke="none" fill="none"></path><g id="SvgjsG1084"><text id="SvgjsText1085" font-family="微软雅黑" text-anchor="middle" font-size="16px" width="98px" fill="#323232" font-weight="400" align="middle" anchor="middle" family="微软雅黑" size="16px" weight="400" font-style="" opacity="1" y="11.1" transform="rotate(0)"><tspan id="SvgjsTspan1086" dy="20" x="49"><tspan id="SvgjsTspan1087" style="text-decoration:;">dev</tspan></tspan></text></g></g><g id="SvgjsG1088"><path id="SvgjsPath1089" d="M503 199L503 224.5L503 224.5L503 250" stroke="#323232" stroke-width="2" fill="none" marker-start="url(#SvgjsMarker1090)"></path></g></svg>