<svg id="SvgjsSvg1092" width="766" height="407" xmlns="http://www.w3.org/2000/svg" version="1.1" xmlns:xlink="http://www.w3.org/1999/xlink" xmlns:svgjs="http://svgjs.com/svgjs"><defs id="SvgjsDefs1093"><marker id="SvgjsMarker1112" markerWidth="16" markerHeight="12" refX="16" refY="6" viewBox="0 0 16 12" orient="auto" markerUnits="userSpaceOnUse" stroke-dasharray="0,0"><path id="SvgjsPath1113" d="M0,2 L14,6 L0,11 L0,2" fill="#323232" stroke="#323232" stroke-width="2"></path></marker><marker id="SvgjsMarker1128" markerWidth="16" markerHeight="12" refX="0" refY="6" viewBox="0 0 16 12" orient="auto" markerUnits="userSpaceOnUse" stroke-dasharray="0,0"><path id="SvgjsPath1129" d="M15,1.5 L2,6 L15,10.5" fill="#323232" stroke="#323232" stroke-width="2"></path></marker><marker id="SvgjsMarker1138" markerWidth="16" markerHeight="12" refX="0" refY="6" viewBox="0 0 16 12" orient="auto" markerUnits="userSpaceOnUse" stroke-dasharray="0,0"><path id="SvgjsPath1139" d="M15,1.5 L2,6 L15,10.5" fill="#323232" stroke="#323232" stroke-width="2"></path></marker></defs><g id="SvgjsG1094" transform="translate(25,125)"><path id="SvgjsPath1095" d="M 0 35C 0 -11.666666666666666 70 -11.666666666666666 70 35C 70 81.66666666666667 0 81.66666666666667 0 35Z" stroke="rgba(50,50,50,1)" stroke-width="2" fill-opacity="1" fill="#ffffff"></path><g id="SvgjsG1096"><text id="SvgjsText1097" font-family="微软雅黑" text-anchor="middle" font-size="13px" width="50px" fill="#323232" font-weight="400" align="middle" anchor="middle" family="微软雅黑" size="13px" weight="400" font-style="" opacity="1" y="25.05" transform="rotate(0)"></text></g></g><g id="SvgjsG1098" transform="translate(250,125)"><path id="SvgjsPath1099" d="M 0 35C 0 -11.666666666666666 70 -11.666666666666666 70 35C 70 81.66666666666667 0 81.66666666666667 0 35Z" stroke="rgba(50,50,50,1)" stroke-width="2" fill-opacity="1" fill="#ffffff"></path><g id="SvgjsG1100"><text id="SvgjsText1101" font-family="微软雅黑" text-anchor="middle" font-size="13px" width="50px" fill="#323232" font-weight="400" align="middle" anchor="middle" family="微软雅黑" size="13px" weight="400" font-style="" opacity="1" y="25.05" transform="rotate(0)"></text></g></g><g id="SvgjsG1102" transform="translate(468,125)"><path id="SvgjsPath1103" d="M 0 35C 0 -11.666666666666666 70 -11.666666666666666 70 35C 70 81.66666666666667 0 81.66666666666667 0 35Z" stroke="rgba(50,50,50,1)" stroke-width="2" fill-opacity="1" fill="#ffffff"></path><g id="SvgjsG1104"><text id="SvgjsText1105" font-family="微软雅黑" text-anchor="middle" font-size="13px" width="50px" fill="#323232" font-weight="400" align="middle" anchor="middle" family="微软雅黑" size="13px" weight="400" font-style="" opacity="1" y="25.05" transform="rotate(0)"></text></g></g><g id="SvgjsG1106"><path id="SvgjsPath1107" d="M95 160L172.5 160L172.5 160L250 160" stroke="#323232" stroke-width="2" fill="none"></path></g><g id="SvgjsG1108"><path id="SvgjsPath1109" d="M320 160L394 160L394 160L468 160" stroke="#323232" stroke-width="2" fill="none"></path></g><g id="SvgjsG1110"><path id="SvgjsPath1111" d="M503 74L503 99.5L503 99.5L503 125" stroke="#323232" stroke-width="2" fill="none" marker-end="url(#SvgjsMarker1112)"></path></g><g id="SvgjsG1114" transform="translate(454,25)"><path id="SvgjsPath1115" d="M 0 0L 98 0L 98 47L 0 47Z" stroke="none" fill="none"></path><g id="SvgjsG1116"><text id="SvgjsText1117" font-family="微软雅黑" text-anchor="middle" font-size="16px" width="98px" fill="#323232" font-weight="400" align="middle" anchor="middle" family="微软雅黑" size="16px" weight="400" font-style="" opacity="1" y="11.1" transform="rotate(0)"><tspan id="SvgjsTspan1118" dy="20" x="49"><tspan id="SvgjsTspan1119" style="text-decoration:;">master</tspan></tspan></text></g></g><g id="SvgjsG1120" transform="translate(643,335)"><path id="SvgjsPath1121" d="M 0 0L 98 0L 98 47L 0 47Z" stroke="none" fill="none"></path><g id="SvgjsG1122"><text id="SvgjsText1123" font-family="微软雅黑" text-anchor="middle" font-size="16px" width="98px" fill="#323232" font-weight="400" align="middle" anchor="middle" family="微软雅黑" size="16px" weight="400" font-style="" opacity="1" y="11.1" transform="rotate(0)"><tspan id="SvgjsTspan1124" dy="20" x="49"><tspan id="SvgjsTspan1125" style="text-decoration:;">HEAD</tspan></tspan></text></g></g><g id="SvgjsG1126"><path id="SvgjsPath1127" d="M692 291L692 316.5L692 316.5L692 342" stroke="#323232" stroke-width="2" fill="none" marker-start="url(#SvgjsMarker1128)"></path></g><g id="SvgjsG1130" transform="translate(643,245)"><path id="SvgjsPath1131" d="M 0 0L 98 0L 98 47L 0 47Z" stroke="none" fill="none"></path><g id="SvgjsG1132"><text id="SvgjsText1133" font-family="微软雅黑" text-anchor="middle" font-size="16px" width="98px" fill="#323232" font-weight="400" align="middle" anchor="middle" family="微软雅黑" size="16px" weight="400" font-style="" opacity="1" y="11.1" transform="rotate(0)"><tspan id="SvgjsTspan1134" dy="20" x="49"><tspan id="SvgjsTspan1135" style="text-decoration:;">dev</tspan></tspan></text></g></g><g id="SvgjsG1136"><path id="SvgjsPath1137" d="M692 206L692 231.5L692 231.5L692 257" stroke="#323232" stroke-width="2" fill="none" marker-start="url(#SvgjsMarker1138)"></path></g><g id="SvgjsG1140" transform="translate(657,125)"><path id="SvgjsPath1141" d="M 0 35C 0 -11.666666666666666 70 -11.666666666666666 70 35C 70 81.66666666666667 0 81.66666666666667 0 35Z" stroke="rgba(50,50,50,1)" stroke-width="2" fill-opacity="1" fill="#ffffff"></path><g id="SvgjsG1142"><text id="SvgjsText1143" font-family="微软雅黑" text-anchor="middle" font-size="13px" width="50px" fill="#323232" font-weight="400" align="middle" anchor="middle" family="微软雅黑" size="13px" weight="400" font-style="" opacity="1" y="25.05" transform="rotate(0)"></text></g></g><g id="SvgjsG1144"><path id="SvgjsPath1145" d="M538 160L597.5 160L597.5 160L657 160" stroke="#323232" stroke-width="2" fill="none"></path></g></svg>