<svg id="SvgjsSvg1146" width="766" height="407" xmlns="http://www.w3.org/2000/svg" version="1.1" xmlns:xlink="http://www.w3.org/1999/xlink" xmlns:svgjs="http://svgjs.com/svgjs"><defs id="SvgjsDefs1147"><marker id="SvgjsMarker1178" markerWidth="16" markerHeight="12" refX="16" refY="6" viewBox="0 0 16 12" orient="auto" markerUnits="userSpaceOnUse" stroke-dasharray="0,0"><path id="SvgjsPath1179" d="M0,2 L14,6 L0,11 L0,2" fill="#323232" stroke="#323232" stroke-width="2"></path></marker><marker id="SvgjsMarker1188" markerWidth="16" markerHeight="12" refX="0" refY="6" viewBox="0 0 16 12" orient="auto" markerUnits="userSpaceOnUse" stroke-dasharray="0,0"><path id="SvgjsPath1189" d="M15,1.5 L2,6 L15,10.5" fill="#323232" stroke="#323232" stroke-width="2"></path></marker><marker id="SvgjsMarker1198" markerWidth="16" markerHeight="12" refX="16" refY="6" viewBox="0 0 16 12" orient="auto" markerUnits="userSpaceOnUse" stroke-dasharray="0,0"><path id="SvgjsPath1199" d="M0,2 L14,6 L0,11 L0,2" fill="#323232" stroke="#323232" stroke-width="2"></path></marker></defs><g id="SvgjsG1148" transform="translate(25,215)"><path id="SvgjsPath1149" d="M 0 35C 0 -11.666666666666666 70 -11.666666666666666 70 35C 70 81.66666666666667 0 81.66666666666667 0 35Z" stroke="rgba(50,50,50,1)" stroke-width="2" fill-opacity="1" fill="#ffffff"></path><g id="SvgjsG1150"><text id="SvgjsText1151" font-family="微软雅黑" text-anchor="middle" font-size="13px" width="50px" fill="#323232" font-weight="400" align="middle" anchor="middle" family="微软雅黑" size="13px" weight="400" font-style="" opacity="1" y="25.05" transform="rotate(0)"></text></g></g><g id="SvgjsG1152" transform="translate(250,215)"><path id="SvgjsPath1153" d="M 0 35C 0 -11.666666666666666 70 -11.666666666666666 70 35C 70 81.66666666666667 0 81.66666666666667 0 35Z" stroke="rgba(50,50,50,1)" stroke-width="2" fill-opacity="1" fill="#ffffff"></path><g id="SvgjsG1154"><text id="SvgjsText1155" font-family="微软雅黑" text-anchor="middle" font-size="13px" width="50px" fill="#323232" font-weight="400" align="middle" anchor="middle" family="微软雅黑" size="13px" weight="400" font-style="" opacity="1" y="25.05" transform="rotate(0)"></text></g></g><g id="SvgjsG1156" transform="translate(468,215)"><path id="SvgjsPath1157" d="M 0 35C 0 -11.666666666666666 70 -11.666666666666666 70 35C 70 81.66666666666667 0 81.66666666666667 0 35Z" stroke="rgba(50,50,50,1)" stroke-width="2" fill-opacity="1" fill="#ffffff"></path><g id="SvgjsG1158"><text id="SvgjsText1159" font-family="微软雅黑" text-anchor="middle" font-size="13px" width="50px" fill="#323232" font-weight="400" align="middle" anchor="middle" family="微软雅黑" size="13px" weight="400" font-style="" opacity="1" y="25.05" transform="rotate(0)"></text></g></g><g id="SvgjsG1160"><path id="SvgjsPath1161" d="M95 250L172.5 250L172.5 250L250 250" stroke="#323232" stroke-width="2" fill="none"></path></g><g id="SvgjsG1162"><path id="SvgjsPath1163" d="M320 250L394 250L394 250L468 250" stroke="#323232" stroke-width="2" fill="none"></path></g><g id="SvgjsG1164" transform="translate(643,105)"><path id="SvgjsPath1165" d="M 0 0L 98 0L 98 47L 0 47Z" stroke="none" fill="none"></path><g id="SvgjsG1166"><text id="SvgjsText1167" font-family="微软雅黑" text-anchor="middle" font-size="16px" width="98px" fill="#323232" font-weight="400" align="middle" anchor="middle" family="微软雅黑" size="16px" weight="400" font-style="" opacity="1" y="11.1" transform="rotate(0)"><tspan id="SvgjsTspan1168" dy="20" x="49"><tspan id="SvgjsTspan1169" style="text-decoration:;">master</tspan></tspan></text></g></g><g id="SvgjsG1170" transform="translate(643,25)"><path id="SvgjsPath1171" d="M 0 0L 98 0L 98 47L 0 47Z" stroke="none" fill="none"></path><g id="SvgjsG1172"><text id="SvgjsText1173" font-family="微软雅黑" text-anchor="middle" font-size="16px" width="98px" fill="#323232" font-weight="400" align="middle" anchor="middle" family="微软雅黑" size="16px" weight="400" font-style="" opacity="1" y="11.1" transform="rotate(0)"><tspan id="SvgjsTspan1174" dy="20" x="49"><tspan id="SvgjsTspan1175" style="text-decoration:;">HEAD</tspan></tspan></text></g></g><g id="SvgjsG1176"><path id="SvgjsPath1177" d="M693 68L693 93.5L693 93.5L693 119" stroke="#323232" stroke-width="2" fill="none" marker-end="url(#SvgjsMarker1178)"></path></g><g id="SvgjsG1180" transform="translate(643,335)"><path id="SvgjsPath1181" d="M 0 0L 98 0L 98 47L 0 47Z" stroke="none" fill="none"></path><g id="SvgjsG1182"><text id="SvgjsText1183" font-family="微软雅黑" text-anchor="middle" font-size="16px" width="98px" fill="#323232" font-weight="400" align="middle" anchor="middle" family="微软雅黑" size="16px" weight="400" font-style="" opacity="1" y="11.1" transform="rotate(0)"><tspan id="SvgjsTspan1184" dy="20" x="49"><tspan id="SvgjsTspan1185" style="text-decoration:;">dev</tspan></tspan></text></g></g><g id="SvgjsG1186"><path id="SvgjsPath1187" d="M692 296L692 321.5L692 321.5L692 347" stroke="#323232" stroke-width="2" fill="none" marker-start="url(#SvgjsMarker1188)"></path></g><g id="SvgjsG1190" transform="translate(657,215)"><path id="SvgjsPath1191" d="M 0 35C 0 -11.666666666666666 70 -11.666666666666666 70 35C 70 81.66666666666667 0 81.66666666666667 0 35Z" stroke="rgba(50,50,50,1)" stroke-width="2" fill-opacity="1" fill="#ffffff"></path><g id="SvgjsG1192"><text id="SvgjsText1193" font-family="微软雅黑" text-anchor="middle" font-size="13px" width="50px" fill="#323232" font-weight="400" align="middle" anchor="middle" family="微软雅黑" size="13px" weight="400" font-style="" opacity="1" y="25.05" transform="rotate(0)"></text></g></g><g id="SvgjsG1194"><path id="SvgjsPath1195" d="M538 250L597.5 250L597.5 250L657 250" stroke="#323232" stroke-width="2" fill="none"></path></g><g id="SvgjsG1196"><path id="SvgjsPath1197" d="M692 155L692 180.5L692 180.5L692 206" stroke="#323232" stroke-width="2" fill="none" marker-end="url(#SvgjsMarker1198)"></path></g></svg>